<svg xmlns="http://www.w3.org/2000/svg" width="560" height="269" viewBox="0 0 560 269">
<rect width="100%" height="100%" fill="#fff"/>
<text x="280.0" y="18" text-anchor="middle" font-family="Georgia, serif" font-size="12" font-weight="700">Average Hours Worked per Person per Year in 1950 and 2017</text>
<rect x="20" y="33" width="100" height="56" fill="#f3f4f6" stroke="#111"/>
<text x="70.0" y="65.0" text-anchor="middle" font-family="Georgia, serif" font-size="12" font-weight="700">Country</text>
<rect x="120" y="33" width="80" height="56" fill="#f3f4f6" stroke="#111"/>
<text x="160.0" y="65.0" text-anchor="middle" font-family="Georgia, serif" font-size="12" font-weight="700">1950</text>
<rect x="200" y="33" width="80" height="56" fill="#f3f4f6" stroke="#111"/>
<text x="240.0" y="65.0" text-anchor="middle" font-family="Georgia, serif" font-size="12" font-weight="700">2017</text>
<rect x="280" y="33" width="120" height="56" fill="#f3f4f6" stroke="#111"/>
<text x="340.0" y="65.0" text-anchor="middle" font-family="Georgia, serif" font-size="12" font-weight="700">Change in hours</text>
<rect x="400" y="33" width="140" height="56" fill="#f3f4f6" stroke="#111"/>
<text x="470.0" y="65.0" text-anchor="middle" font-family="Georgia, serif" font-size="10" font-weight="700">Percent change in hours</text>
<rect x="20" y="89" width="100" height="40" fill="#fff" stroke="#111"/>
<text x="70.0" y="113.0" text-anchor="middle" font-family="Georgia, serif" font-size="12" font-weight="400">Peru</text>
<rect x="120" y="89" width="80" height="40" fill="#fff" stroke="#111"/>
<text x="160.0" y="113.0" text-anchor="middle" font-family="Georgia, serif" font-size="12" font-weight="400">2,157</text>
<rect x="200" y="89" width="80" height="40" fill="#fff" stroke="#111"/>
<text x="240.0" y="113.0" text-anchor="middle" font-family="Georgia, serif" font-size="12" font-weight="400">1,932</text>
<rect x="280" y="89" width="120" height="40" fill="#fff" stroke="#111"/>
<text x="340.0" y="113.0" text-anchor="middle" font-family="Georgia, serif" font-size="12" font-weight="400">−225</text>
<rect x="400" y="89" width="140" height="40" fill="#fff" stroke="#111"/>
<text x="470.0" y="113.0" text-anchor="middle" font-family="Georgia, serif" font-size="12" font-weight="400">−10%</text>
<rect x="20" y="129" width="100" height="40" fill="#fff" stroke="#111"/>
<text x="70.0" y="153.0" text-anchor="middle" font-family="Georgia, serif" font-size="12" font-weight="400">Canada</text>
<rect x="120" y="129" width="80" height="40" fill="#fff" stroke="#111"/>
<text x="160.0" y="153.0" text-anchor="middle" font-family="Georgia, serif" font-size="12" font-weight="400">2,209</text>
<rect x="200" y="129" width="80" height="40" fill="#fff" stroke="#111"/>
<text x="240.0" y="153.0" text-anchor="middle" font-family="Georgia, serif" font-size="12" font-weight="400">1,696</text>
<rect x="280" y="129" width="120" height="40" fill="#fff" stroke="#111"/>
<text x="340.0" y="153.0" text-anchor="middle" font-family="Georgia, serif" font-size="12" font-weight="400">−513</text>
<rect x="400" y="129" width="140" height="40" fill="#fff" stroke="#111"/>
<text x="470.0" y="153.0" text-anchor="middle" font-family="Georgia, serif" font-size="12" font-weight="400">−23%</text>
<rect x="20" y="169" width="100" height="40" fill="#fff" stroke="#111"/>
<text x="70.0" y="193.0" text-anchor="middle" font-family="Georgia, serif" font-size="12" font-weight="400">Denmark</text>
<rect x="120" y="169" width="80" height="40" fill="#fff" stroke="#111"/>
<text x="160.0" y="193.0" text-anchor="middle" font-family="Georgia, serif" font-size="12" font-weight="400">2,049</text>
<rect x="200" y="169" width="80" height="40" fill="#fff" stroke="#111"/>
<text x="240.0" y="193.0" text-anchor="middle" font-family="Georgia, serif" font-size="12" font-weight="400">1,400</text>
<rect x="280" y="169" width="120" height="40" fill="#fff" stroke="#111"/>
<text x="340.0" y="193.0" text-anchor="middle" font-family="Georgia, serif" font-size="12" font-weight="400">−649</text>
<rect x="400" y="169" width="140" height="40" fill="#fff" stroke="#111"/>
<text x="470.0" y="193.0" text-anchor="middle" font-family="Georgia, serif" font-size="12" font-weight="400">−32%</text>
<rect x="20" y="209" width="100" height="40" fill="#fff" stroke="#111"/>
<text x="70.0" y="233.0" text-anchor="middle" font-family="Georgia, serif" font-size="12" font-weight="400">Finland</text>
<rect x="120" y="209" width="80" height="40" fill="#fff" stroke="#111"/>
<text x="160.0" y="233.0" text-anchor="middle" font-family="Georgia, serif" font-size="12" font-weight="400">2,053</text>
<rect x="200" y="209" width="80" height="40" fill="#fff" stroke="#111"/>
<text x="240.0" y="233.0" text-anchor="middle" font-family="Georgia, serif" font-size="12" font-weight="400">1,659</text>
<rect x="280" y="209" width="120" height="40" fill="#fff" stroke="#111"/>
<text x="340.0" y="233.0" text-anchor="middle" font-family="Georgia, serif" font-size="12" font-weight="400">−394</text>
<rect x="400" y="209" width="140" height="40" fill="#fff" stroke="#111"/>
<text x="470.0" y="233.0" text-anchor="middle" font-family="Georgia, serif" font-size="12" font-weight="400">−19%</text>
</svg>
