<svg xmlns="http://www.w3.org/2000/svg" width="440" height="360" viewBox="0 0 440 360">
  <rect width="100%" height="100%" fill="#fff"/>
  <line x1="70" y1="300.0" x2="410" y2="300.0" stroke="#e5e7eb"/><text x="62" y="304.0" text-anchor="end" font-family="Arial" font-size="11">0</text><line x1="70" y1="266.25" x2="410" y2="266.25" stroke="#e5e7eb"/><text x="62" y="270.25" text-anchor="end" font-family="Arial" font-size="11">10</text><line x1="70" y1="232.5" x2="410" y2="232.5" stroke="#e5e7eb"/><text x="62" y="236.5" text-anchor="end" font-family="Arial" font-size="11">20</text><line x1="70" y1="198.75" x2="410" y2="198.75" stroke="#e5e7eb"/><text x="62" y="202.75" text-anchor="end" font-family="Arial" font-size="11">30</text><line x1="70" y1="165.0" x2="410" y2="165.0" stroke="#e5e7eb"/><text x="62" y="169.0" text-anchor="end" font-family="Arial" font-size="11">40</text><line x1="70" y1="131.25" x2="410" y2="131.25" stroke="#e5e7eb"/><text x="62" y="135.25" text-anchor="end" font-family="Arial" font-size="11">50</text><line x1="70" y1="97.5" x2="410" y2="97.5" stroke="#e5e7eb"/><text x="62" y="101.5" text-anchor="end" font-family="Arial" font-size="11">60</text><line x1="70" y1="63.75" x2="410" y2="63.75" stroke="#e5e7eb"/><text x="62" y="67.75" text-anchor="end" font-family="Arial" font-size="11">70</text><line x1="70" y1="30.0" x2="410" y2="30.0" stroke="#e5e7eb"/><text x="62" y="34.0" text-anchor="end" font-family="Arial" font-size="11">80</text><line x1="70.0" y1="30" x2="70.0" y2="300" stroke="#e5e7eb"/><text x="70.0" y="318" text-anchor="middle" font-family="Arial" font-size="11">0</text><line x1="138.0" y1="30" x2="138.0" y2="300" stroke="#e5e7eb"/><text x="138.0" y="318" text-anchor="middle" font-family="Arial" font-size="11">2</text><line x1="206.0" y1="30" x2="206.0" y2="300" stroke="#e5e7eb"/><text x="206.0" y="318" text-anchor="middle" font-family="Arial" font-size="11">4</text><line x1="274.0" y1="30" x2="274.0" y2="300" stroke="#e5e7eb"/><text x="274.0" y="318" text-anchor="middle" font-family="Arial" font-size="11">6</text><line x1="342.0" y1="30" x2="342.0" y2="300" stroke="#e5e7eb"/><text x="342.0" y="318" text-anchor="middle" font-family="Arial" font-size="11">8</text><line x1="410.0" y1="30" x2="410.0" y2="300" stroke="#e5e7eb"/><text x="410.0" y="318" text-anchor="middle" font-family="Arial" font-size="11">10</text><line x1="70" y1="30" x2="70" y2="300" stroke="#111"/><line x1="70" y1="300" x2="410" y2="300" stroke="#111"/><line x1="70.0" y1="181.875" x2="410.0" y2="114.375" stroke="#111" stroke-width="2.5"/><circle cx="70.0" cy="181.875" r="4" fill="#111"/><circle cx="410.0" cy="114.375" r="4" fill="#111"/><text x="240.0" y="352" text-anchor="middle" font-family="Arial" font-size="12">Time since initial deposit (months)</text><text x="18" y="165.0" text-anchor="middle" font-family="Arial" font-size="11" transform="rotate(-90 18 165.0)">Bank account balance (dollars)</text>
</svg>
