<svg xmlns="http://www.w3.org/2000/svg" width="480" height="220" viewBox="0 0 480 220">
  <rect width="100%" height="100%" fill="#fff"/><text x="130" y="28" text-anchor="middle" font-family="Georgia, serif" font-size="15" font-weight="bold">Data Set A</text><rect x="40" y="40" width="80" height="28" fill="none" stroke="#111" stroke-width="1.2"/><rect x="120" y="40" width="100" height="28" fill="none" stroke="#111" stroke-width="1.2"/><text x="80.0" y="59" text-anchor="middle" font-family="Arial, sans-serif" font-size="14" font-weight="bold">Value</text><text x="170.0" y="59" text-anchor="middle" font-family="Arial, sans-serif" font-size="14" font-weight="bold">Frequency</text><rect x="40" y="68" width="80" height="28" fill="none" stroke="#111" stroke-width="1.2"/><rect x="120" y="68" width="100" height="28" fill="none" stroke="#111" stroke-width="1.2"/><text x="80.0" y="87" text-anchor="middle" font-family="Arial, sans-serif" font-size="14" font-weight="normal">c</text><text x="170.0" y="87" text-anchor="middle" font-family="Arial, sans-serif" font-size="14" font-weight="normal">12</text><rect x="40" y="96" width="80" height="28" fill="none" stroke="#111" stroke-width="1.2"/><rect x="120" y="96" width="100" height="28" fill="none" stroke="#111" stroke-width="1.2"/><text x="80.0" y="115" text-anchor="middle" font-family="Arial, sans-serif" font-size="14" font-weight="normal">2c</text><text x="170.0" y="115" text-anchor="middle" font-family="Arial, sans-serif" font-size="14" font-weight="normal">21</text><rect x="40" y="124" width="80" height="28" fill="none" stroke="#111" stroke-width="1.2"/><rect x="120" y="124" width="100" height="28" fill="none" stroke="#111" stroke-width="1.2"/><text x="80.0" y="143" text-anchor="middle" font-family="Arial, sans-serif" font-size="14" font-weight="normal">3c</text><text x="170.0" y="143" text-anchor="middle" font-family="Arial, sans-serif" font-size="14" font-weight="normal">30</text><text x="350" y="28" text-anchor="middle" font-family="Georgia, serif" font-size="15" font-weight="bold">Data Set B</text><rect x="260" y="40" width="80" height="28" fill="none" stroke="#111" stroke-width="1.2"/><rect x="340" y="40" width="100" height="28" fill="none" stroke="#111" stroke-width="1.2"/><text x="300.0" y="59" text-anchor="middle" font-family="Arial, sans-serif" font-size="14" font-weight="bold">Value</text><text x="390.0" y="59" text-anchor="middle" font-family="Arial, sans-serif" font-size="14" font-weight="bold">Frequency</text><rect x="260" y="68" width="80" height="28" fill="none" stroke="#111" stroke-width="1.2"/><rect x="340" y="68" width="100" height="28" fill="none" stroke="#111" stroke-width="1.2"/><text x="300.0" y="87" text-anchor="middle" font-family="Arial, sans-serif" font-size="14" font-weight="normal">c</text><text x="390.0" y="87" text-anchor="middle" font-family="Arial, sans-serif" font-size="14" font-weight="normal">30</text><rect x="260" y="96" width="80" height="28" fill="none" stroke="#111" stroke-width="1.2"/><rect x="340" y="96" width="100" height="28" fill="none" stroke="#111" stroke-width="1.2"/><text x="300.0" y="115" text-anchor="middle" font-family="Arial, sans-serif" font-size="14" font-weight="normal">2c</text><text x="390.0" y="115" text-anchor="middle" font-family="Arial, sans-serif" font-size="14" font-weight="normal">21</text><rect x="260" y="124" width="80" height="28" fill="none" stroke="#111" stroke-width="1.2"/><rect x="340" y="124" width="100" height="28" fill="none" stroke="#111" stroke-width="1.2"/><text x="300.0" y="143" text-anchor="middle" font-family="Arial, sans-serif" font-size="14" font-weight="normal">3c</text><text x="390.0" y="143" text-anchor="middle" font-family="Arial, sans-serif" font-size="14" font-weight="normal">12</text>
</svg>
