<svg xmlns="http://www.w3.org/2000/svg" width="320" height="880" viewBox="0 0 320 880">
  <rect width="100%" height="100%" fill="#fff"/>
  
  <g>
    <circle cx="28" cy="110" r="12" fill="none" stroke="#111" stroke-width="1.5"/>
    <text x="28" y="115" text-anchor="middle" font-family="Arial, sans-serif" font-size="14">A</text>
    <rect x="48" y="18" width="240" height="170" fill="#fff" stroke="#d1d5db"/>
    <line x1="68.0" y1="18" x2="68.0" y2="188" stroke="#e5e7eb" stroke-width="1"/><line x1="48" y1="203.0" x2="288" y2="203.0" stroke="#e5e7eb" stroke-width="1"/><line x1="78.0" y1="18" x2="78.0" y2="188" stroke="#e5e7eb" stroke-width="1"/><line x1="48" y1="193.0" x2="288" y2="193.0" stroke="#e5e7eb" stroke-width="1"/><line x1="88.0" y1="18" x2="88.0" y2="188" stroke="#e5e7eb" stroke-width="1"/><line x1="48" y1="183.0" x2="288" y2="183.0" stroke="#e5e7eb" stroke-width="1"/><line x1="98.0" y1="18" x2="98.0" y2="188" stroke="#e5e7eb" stroke-width="1"/><line x1="48" y1="173.0" x2="288" y2="173.0" stroke="#e5e7eb" stroke-width="1"/><line x1="108.0" y1="18" x2="108.0" y2="188" stroke="#e5e7eb" stroke-width="1"/><line x1="48" y1="163.0" x2="288" y2="163.0" stroke="#e5e7eb" stroke-width="1"/><line x1="118.0" y1="18" x2="118.0" y2="188" stroke="#e5e7eb" stroke-width="1"/><line x1="48" y1="153.0" x2="288" y2="153.0" stroke="#e5e7eb" stroke-width="1"/><line x1="128.0" y1="18" x2="128.0" y2="188" stroke="#e5e7eb" stroke-width="1"/><line x1="48" y1="143.0" x2="288" y2="143.0" stroke="#e5e7eb" stroke-width="1"/><line x1="138.0" y1="18" x2="138.0" y2="188" stroke="#e5e7eb" stroke-width="1"/><line x1="48" y1="133.0" x2="288" y2="133.0" stroke="#e5e7eb" stroke-width="1"/><line x1="148.0" y1="18" x2="148.0" y2="188" stroke="#e5e7eb" stroke-width="1"/><line x1="48" y1="123.0" x2="288" y2="123.0" stroke="#e5e7eb" stroke-width="1"/><line x1="158.0" y1="18" x2="158.0" y2="188" stroke="#e5e7eb" stroke-width="1"/><line x1="48" y1="113.0" x2="288" y2="113.0" stroke="#e5e7eb" stroke-width="1"/><line x1="168.0" y1="18" x2="168.0" y2="188" stroke="#e5e7eb" stroke-width="1"/><line x1="48" y1="103.0" x2="288" y2="103.0" stroke="#e5e7eb" stroke-width="1"/><line x1="178.0" y1="18" x2="178.0" y2="188" stroke="#e5e7eb" stroke-width="1"/><line x1="48" y1="93.0" x2="288" y2="93.0" stroke="#e5e7eb" stroke-width="1"/><line x1="188.0" y1="18" x2="188.0" y2="188" stroke="#e5e7eb" stroke-width="1"/><line x1="48" y1="83.0" x2="288" y2="83.0" stroke="#e5e7eb" stroke-width="1"/><line x1="198.0" y1="18" x2="198.0" y2="188" stroke="#e5e7eb" stroke-width="1"/><line x1="48" y1="73.0" x2="288" y2="73.0" stroke="#e5e7eb" stroke-width="1"/><line x1="208.0" y1="18" x2="208.0" y2="188" stroke="#e5e7eb" stroke-width="1"/><line x1="48" y1="63.0" x2="288" y2="63.0" stroke="#e5e7eb" stroke-width="1"/><line x1="218.0" y1="18" x2="218.0" y2="188" stroke="#e5e7eb" stroke-width="1"/><line x1="48" y1="53.0" x2="288" y2="53.0" stroke="#e5e7eb" stroke-width="1"/><line x1="228.0" y1="18" x2="228.0" y2="188" stroke="#e5e7eb" stroke-width="1"/><line x1="48" y1="43.0" x2="288" y2="43.0" stroke="#e5e7eb" stroke-width="1"/><line x1="238.0" y1="18" x2="238.0" y2="188" stroke="#e5e7eb" stroke-width="1"/><line x1="48" y1="33.0" x2="288" y2="33.0" stroke="#e5e7eb" stroke-width="1"/><line x1="248.0" y1="18" x2="248.0" y2="188" stroke="#e5e7eb" stroke-width="1"/><line x1="48" y1="23.0" x2="288" y2="23.0" stroke="#e5e7eb" stroke-width="1"/><line x1="258.0" y1="18" x2="258.0" y2="188" stroke="#e5e7eb" stroke-width="1"/><line x1="48" y1="13.0" x2="288" y2="13.0" stroke="#e5e7eb" stroke-width="1"/><line x1="268.0" y1="18" x2="268.0" y2="188" stroke="#e5e7eb" stroke-width="1"/><line x1="48" y1="3.0" x2="288" y2="3.0" stroke="#e5e7eb" stroke-width="1"/>
    <line x1="48" y1="103.0" x2="288" y2="103.0" stroke="#111" stroke-width="1.5"/><line x1="168.0" y1="18" x2="168.0" y2="188" stroke="#111" stroke-width="1.5"/>
    <polyline points="58.0,16.6 62.6,25.2 67.2,33.5 71.8,41.5 76.3,49.1 80.9,56.4 85.5,63.3 90.1,70.0 94.7,76.2 99.2,82.2 103.8,87.8 108.4,93.1 113.0,98.0 117.6,102.6 122.2,106.9 126.8,110.8 131.3,114.4 135.9,117.6 140.5,120.5 145.1,123.1 149.7,125.4 154.2,127.3 158.8,128.9 163.4,130.1 168.0,131.0 172.6,131.6 177.2,131.8 181.8,131.7 186.3,131.2 190.9,130.5 195.5,129.3 200.1,127.9 204.7,126.1 209.2,124.0 213.8,121.5 218.4,118.7 223.0,115.6 227.6,112.1 232.2,108.3 236.8,104.2 241.3,99.7 245.9,94.9 250.5,89.8 255.1,84.3 259.7,78.4 264.2,72.3 268.8,65.8 273.4,59.0 278.0,51.8" fill="none" stroke="#111" stroke-width="2"/>
  </g>
  <g>
    <circle cx="28" cy="320" r="12" fill="none" stroke="#111" stroke-width="1.5"/>
    <text x="28" y="325" text-anchor="middle" font-family="Arial, sans-serif" font-size="14">B</text>
    <rect x="48" y="228" width="240" height="170" fill="#fff" stroke="#d1d5db"/>
    <line x1="68.0" y1="228" x2="68.0" y2="398" stroke="#e5e7eb" stroke-width="1"/><line x1="48" y1="413.0" x2="288" y2="413.0" stroke="#e5e7eb" stroke-width="1"/><line x1="78.0" y1="228" x2="78.0" y2="398" stroke="#e5e7eb" stroke-width="1"/><line x1="48" y1="403.0" x2="288" y2="403.0" stroke="#e5e7eb" stroke-width="1"/><line x1="88.0" y1="228" x2="88.0" y2="398" stroke="#e5e7eb" stroke-width="1"/><line x1="48" y1="393.0" x2="288" y2="393.0" stroke="#e5e7eb" stroke-width="1"/><line x1="98.0" y1="228" x2="98.0" y2="398" stroke="#e5e7eb" stroke-width="1"/><line x1="48" y1="383.0" x2="288" y2="383.0" stroke="#e5e7eb" stroke-width="1"/><line x1="108.0" y1="228" x2="108.0" y2="398" stroke="#e5e7eb" stroke-width="1"/><line x1="48" y1="373.0" x2="288" y2="373.0" stroke="#e5e7eb" stroke-width="1"/><line x1="118.0" y1="228" x2="118.0" y2="398" stroke="#e5e7eb" stroke-width="1"/><line x1="48" y1="363.0" x2="288" y2="363.0" stroke="#e5e7eb" stroke-width="1"/><line x1="128.0" y1="228" x2="128.0" y2="398" stroke="#e5e7eb" stroke-width="1"/><line x1="48" y1="353.0" x2="288" y2="353.0" stroke="#e5e7eb" stroke-width="1"/><line x1="138.0" y1="228" x2="138.0" y2="398" stroke="#e5e7eb" stroke-width="1"/><line x1="48" y1="343.0" x2="288" y2="343.0" stroke="#e5e7eb" stroke-width="1"/><line x1="148.0" y1="228" x2="148.0" y2="398" stroke="#e5e7eb" stroke-width="1"/><line x1="48" y1="333.0" x2="288" y2="333.0" stroke="#e5e7eb" stroke-width="1"/><line x1="158.0" y1="228" x2="158.0" y2="398" stroke="#e5e7eb" stroke-width="1"/><line x1="48" y1="323.0" x2="288" y2="323.0" stroke="#e5e7eb" stroke-width="1"/><line x1="168.0" y1="228" x2="168.0" y2="398" stroke="#e5e7eb" stroke-width="1"/><line x1="48" y1="313.0" x2="288" y2="313.0" stroke="#e5e7eb" stroke-width="1"/><line x1="178.0" y1="228" x2="178.0" y2="398" stroke="#e5e7eb" stroke-width="1"/><line x1="48" y1="303.0" x2="288" y2="303.0" stroke="#e5e7eb" stroke-width="1"/><line x1="188.0" y1="228" x2="188.0" y2="398" stroke="#e5e7eb" stroke-width="1"/><line x1="48" y1="293.0" x2="288" y2="293.0" stroke="#e5e7eb" stroke-width="1"/><line x1="198.0" y1="228" x2="198.0" y2="398" stroke="#e5e7eb" stroke-width="1"/><line x1="48" y1="283.0" x2="288" y2="283.0" stroke="#e5e7eb" stroke-width="1"/><line x1="208.0" y1="228" x2="208.0" y2="398" stroke="#e5e7eb" stroke-width="1"/><line x1="48" y1="273.0" x2="288" y2="273.0" stroke="#e5e7eb" stroke-width="1"/><line x1="218.0" y1="228" x2="218.0" y2="398" stroke="#e5e7eb" stroke-width="1"/><line x1="48" y1="263.0" x2="288" y2="263.0" stroke="#e5e7eb" stroke-width="1"/><line x1="228.0" y1="228" x2="228.0" y2="398" stroke="#e5e7eb" stroke-width="1"/><line x1="48" y1="253.0" x2="288" y2="253.0" stroke="#e5e7eb" stroke-width="1"/><line x1="238.0" y1="228" x2="238.0" y2="398" stroke="#e5e7eb" stroke-width="1"/><line x1="48" y1="243.0" x2="288" y2="243.0" stroke="#e5e7eb" stroke-width="1"/><line x1="248.0" y1="228" x2="248.0" y2="398" stroke="#e5e7eb" stroke-width="1"/><line x1="48" y1="233.0" x2="288" y2="233.0" stroke="#e5e7eb" stroke-width="1"/><line x1="258.0" y1="228" x2="258.0" y2="398" stroke="#e5e7eb" stroke-width="1"/><line x1="48" y1="223.0" x2="288" y2="223.0" stroke="#e5e7eb" stroke-width="1"/><line x1="268.0" y1="228" x2="268.0" y2="398" stroke="#e5e7eb" stroke-width="1"/><line x1="48" y1="213.0" x2="288" y2="213.0" stroke="#e5e7eb" stroke-width="1"/>
    <line x1="48" y1="313.0" x2="288" y2="313.0" stroke="#111" stroke-width="1.5"/><line x1="168.0" y1="228" x2="168.0" y2="398" stroke="#111" stroke-width="1.5"/>
    <polyline points="58.0,261.8 62.6,269.0 67.2,275.8 71.8,282.3 76.3,288.4 80.9,294.3 85.5,299.8 90.1,304.9 94.7,309.7 99.2,314.2 103.8,318.3 108.4,322.1 113.0,325.6 117.6,328.7 122.2,331.5 126.8,334.0 131.3,336.1 135.9,337.9 140.5,339.4 145.1,340.5 149.7,341.2 154.2,341.7 158.8,341.8 163.4,341.6 168.0,341.0 172.6,340.1 177.2,338.9 181.8,337.3 186.3,335.4 190.9,333.1 195.5,330.6 200.1,327.6 204.7,324.4 209.2,320.8 213.8,316.9 218.4,312.6 223.0,308.0 227.6,303.1 232.2,297.8 236.8,292.2 241.3,286.2 245.9,280.0 250.5,273.4 255.1,266.4 259.7,259.1 264.2,251.5 268.8,243.5 273.4,235.2 278.0,226.6" fill="none" stroke="#111" stroke-width="2"/>
  </g>
  <g>
    <circle cx="28" cy="530" r="12" fill="none" stroke="#111" stroke-width="1.5"/>
    <text x="28" y="535" text-anchor="middle" font-family="Arial, sans-serif" font-size="14">C</text>
    <rect x="48" y="438" width="240" height="170" fill="#fff" stroke="#d1d5db"/>
    <line x1="68.0" y1="438" x2="68.0" y2="608" stroke="#e5e7eb" stroke-width="1"/><line x1="48" y1="623.0" x2="288" y2="623.0" stroke="#e5e7eb" stroke-width="1"/><line x1="78.0" y1="438" x2="78.0" y2="608" stroke="#e5e7eb" stroke-width="1"/><line x1="48" y1="613.0" x2="288" y2="613.0" stroke="#e5e7eb" stroke-width="1"/><line x1="88.0" y1="438" x2="88.0" y2="608" stroke="#e5e7eb" stroke-width="1"/><line x1="48" y1="603.0" x2="288" y2="603.0" stroke="#e5e7eb" stroke-width="1"/><line x1="98.0" y1="438" x2="98.0" y2="608" stroke="#e5e7eb" stroke-width="1"/><line x1="48" y1="593.0" x2="288" y2="593.0" stroke="#e5e7eb" stroke-width="1"/><line x1="108.0" y1="438" x2="108.0" y2="608" stroke="#e5e7eb" stroke-width="1"/><line x1="48" y1="583.0" x2="288" y2="583.0" stroke="#e5e7eb" stroke-width="1"/><line x1="118.0" y1="438" x2="118.0" y2="608" stroke="#e5e7eb" stroke-width="1"/><line x1="48" y1="573.0" x2="288" y2="573.0" stroke="#e5e7eb" stroke-width="1"/><line x1="128.0" y1="438" x2="128.0" y2="608" stroke="#e5e7eb" stroke-width="1"/><line x1="48" y1="563.0" x2="288" y2="563.0" stroke="#e5e7eb" stroke-width="1"/><line x1="138.0" y1="438" x2="138.0" y2="608" stroke="#e5e7eb" stroke-width="1"/><line x1="48" y1="553.0" x2="288" y2="553.0" stroke="#e5e7eb" stroke-width="1"/><line x1="148.0" y1="438" x2="148.0" y2="608" stroke="#e5e7eb" stroke-width="1"/><line x1="48" y1="543.0" x2="288" y2="543.0" stroke="#e5e7eb" stroke-width="1"/><line x1="158.0" y1="438" x2="158.0" y2="608" stroke="#e5e7eb" stroke-width="1"/><line x1="48" y1="533.0" x2="288" y2="533.0" stroke="#e5e7eb" stroke-width="1"/><line x1="168.0" y1="438" x2="168.0" y2="608" stroke="#e5e7eb" stroke-width="1"/><line x1="48" y1="523.0" x2="288" y2="523.0" stroke="#e5e7eb" stroke-width="1"/><line x1="178.0" y1="438" x2="178.0" y2="608" stroke="#e5e7eb" stroke-width="1"/><line x1="48" y1="513.0" x2="288" y2="513.0" stroke="#e5e7eb" stroke-width="1"/><line x1="188.0" y1="438" x2="188.0" y2="608" stroke="#e5e7eb" stroke-width="1"/><line x1="48" y1="503.0" x2="288" y2="503.0" stroke="#e5e7eb" stroke-width="1"/><line x1="198.0" y1="438" x2="198.0" y2="608" stroke="#e5e7eb" stroke-width="1"/><line x1="48" y1="493.0" x2="288" y2="493.0" stroke="#e5e7eb" stroke-width="1"/><line x1="208.0" y1="438" x2="208.0" y2="608" stroke="#e5e7eb" stroke-width="1"/><line x1="48" y1="483.0" x2="288" y2="483.0" stroke="#e5e7eb" stroke-width="1"/><line x1="218.0" y1="438" x2="218.0" y2="608" stroke="#e5e7eb" stroke-width="1"/><line x1="48" y1="473.0" x2="288" y2="473.0" stroke="#e5e7eb" stroke-width="1"/><line x1="228.0" y1="438" x2="228.0" y2="608" stroke="#e5e7eb" stroke-width="1"/><line x1="48" y1="463.0" x2="288" y2="463.0" stroke="#e5e7eb" stroke-width="1"/><line x1="238.0" y1="438" x2="238.0" y2="608" stroke="#e5e7eb" stroke-width="1"/><line x1="48" y1="453.0" x2="288" y2="453.0" stroke="#e5e7eb" stroke-width="1"/><line x1="248.0" y1="438" x2="248.0" y2="608" stroke="#e5e7eb" stroke-width="1"/><line x1="48" y1="443.0" x2="288" y2="443.0" stroke="#e5e7eb" stroke-width="1"/><line x1="258.0" y1="438" x2="258.0" y2="608" stroke="#e5e7eb" stroke-width="1"/><line x1="48" y1="433.0" x2="288" y2="433.0" stroke="#e5e7eb" stroke-width="1"/><line x1="268.0" y1="438" x2="268.0" y2="608" stroke="#e5e7eb" stroke-width="1"/><line x1="48" y1="423.0" x2="288" y2="423.0" stroke="#e5e7eb" stroke-width="1"/>
    <line x1="48" y1="523.0" x2="288" y2="523.0" stroke="#111" stroke-width="1.5"/><line x1="168.0" y1="438" x2="168.0" y2="608" stroke="#111" stroke-width="1.5"/>
    <polyline points="58.0,503.8 62.6,507.3 67.2,510.5 71.8,513.3 76.3,515.8 80.9,517.9 85.5,519.8 90.1,521.2 94.7,522.4 99.2,523.2 103.8,523.7 108.4,523.8 113.0,523.6 117.6,523.1 122.2,522.2 126.8,521.0 131.3,519.4 135.9,517.6 140.5,515.4 145.1,512.8 149.7,509.9 154.2,506.7 158.8,503.1 163.4,499.2 168.0,495.0 172.6,490.4 177.2,485.5 181.8,480.3 186.3,474.7 190.9,468.8 195.5,462.6 200.1,456.0 204.7,449.0 209.2,441.8 213.8,434.2" fill="none" stroke="#111" stroke-width="2"/>
  </g>
  <g>
    <circle cx="28" cy="740" r="12" fill="none" stroke="#111" stroke-width="1.5"/>
    <text x="28" y="745" text-anchor="middle" font-family="Arial, sans-serif" font-size="14">D</text>
    <rect x="48" y="648" width="240" height="170" fill="#fff" stroke="#d1d5db"/>
    <line x1="68.0" y1="648" x2="68.0" y2="818" stroke="#e5e7eb" stroke-width="1"/><line x1="48" y1="833.0" x2="288" y2="833.0" stroke="#e5e7eb" stroke-width="1"/><line x1="78.0" y1="648" x2="78.0" y2="818" stroke="#e5e7eb" stroke-width="1"/><line x1="48" y1="823.0" x2="288" y2="823.0" stroke="#e5e7eb" stroke-width="1"/><line x1="88.0" y1="648" x2="88.0" y2="818" stroke="#e5e7eb" stroke-width="1"/><line x1="48" y1="813.0" x2="288" y2="813.0" stroke="#e5e7eb" stroke-width="1"/><line x1="98.0" y1="648" x2="98.0" y2="818" stroke="#e5e7eb" stroke-width="1"/><line x1="48" y1="803.0" x2="288" y2="803.0" stroke="#e5e7eb" stroke-width="1"/><line x1="108.0" y1="648" x2="108.0" y2="818" stroke="#e5e7eb" stroke-width="1"/><line x1="48" y1="793.0" x2="288" y2="793.0" stroke="#e5e7eb" stroke-width="1"/><line x1="118.0" y1="648" x2="118.0" y2="818" stroke="#e5e7eb" stroke-width="1"/><line x1="48" y1="783.0" x2="288" y2="783.0" stroke="#e5e7eb" stroke-width="1"/><line x1="128.0" y1="648" x2="128.0" y2="818" stroke="#e5e7eb" stroke-width="1"/><line x1="48" y1="773.0" x2="288" y2="773.0" stroke="#e5e7eb" stroke-width="1"/><line x1="138.0" y1="648" x2="138.0" y2="818" stroke="#e5e7eb" stroke-width="1"/><line x1="48" y1="763.0" x2="288" y2="763.0" stroke="#e5e7eb" stroke-width="1"/><line x1="148.0" y1="648" x2="148.0" y2="818" stroke="#e5e7eb" stroke-width="1"/><line x1="48" y1="753.0" x2="288" y2="753.0" stroke="#e5e7eb" stroke-width="1"/><line x1="158.0" y1="648" x2="158.0" y2="818" stroke="#e5e7eb" stroke-width="1"/><line x1="48" y1="743.0" x2="288" y2="743.0" stroke="#e5e7eb" stroke-width="1"/><line x1="168.0" y1="648" x2="168.0" y2="818" stroke="#e5e7eb" stroke-width="1"/><line x1="48" y1="733.0" x2="288" y2="733.0" stroke="#e5e7eb" stroke-width="1"/><line x1="178.0" y1="648" x2="178.0" y2="818" stroke="#e5e7eb" stroke-width="1"/><line x1="48" y1="723.0" x2="288" y2="723.0" stroke="#e5e7eb" stroke-width="1"/><line x1="188.0" y1="648" x2="188.0" y2="818" stroke="#e5e7eb" stroke-width="1"/><line x1="48" y1="713.0" x2="288" y2="713.0" stroke="#e5e7eb" stroke-width="1"/><line x1="198.0" y1="648" x2="198.0" y2="818" stroke="#e5e7eb" stroke-width="1"/><line x1="48" y1="703.0" x2="288" y2="703.0" stroke="#e5e7eb" stroke-width="1"/><line x1="208.0" y1="648" x2="208.0" y2="818" stroke="#e5e7eb" stroke-width="1"/><line x1="48" y1="693.0" x2="288" y2="693.0" stroke="#e5e7eb" stroke-width="1"/><line x1="218.0" y1="648" x2="218.0" y2="818" stroke="#e5e7eb" stroke-width="1"/><line x1="48" y1="683.0" x2="288" y2="683.0" stroke="#e5e7eb" stroke-width="1"/><line x1="228.0" y1="648" x2="228.0" y2="818" stroke="#e5e7eb" stroke-width="1"/><line x1="48" y1="673.0" x2="288" y2="673.0" stroke="#e5e7eb" stroke-width="1"/><line x1="238.0" y1="648" x2="238.0" y2="818" stroke="#e5e7eb" stroke-width="1"/><line x1="48" y1="663.0" x2="288" y2="663.0" stroke="#e5e7eb" stroke-width="1"/><line x1="248.0" y1="648" x2="248.0" y2="818" stroke="#e5e7eb" stroke-width="1"/><line x1="48" y1="653.0" x2="288" y2="653.0" stroke="#e5e7eb" stroke-width="1"/><line x1="258.0" y1="648" x2="258.0" y2="818" stroke="#e5e7eb" stroke-width="1"/><line x1="48" y1="643.0" x2="288" y2="643.0" stroke="#e5e7eb" stroke-width="1"/><line x1="268.0" y1="648" x2="268.0" y2="818" stroke="#e5e7eb" stroke-width="1"/><line x1="48" y1="633.0" x2="288" y2="633.0" stroke="#e5e7eb" stroke-width="1"/>
    <line x1="48" y1="733.0" x2="288" y2="733.0" stroke="#111" stroke-width="1.5"/><line x1="168.0" y1="648" x2="168.0" y2="818" stroke="#111" stroke-width="1.5"/>
    <polyline points="122.2,644.2 126.8,651.8 131.3,659.0 135.9,666.0 140.5,672.5 145.1,678.8 149.7,684.7 154.2,690.3 158.8,695.5 163.4,700.4 168.0,705.0 172.6,709.2 177.2,713.1 181.8,716.7 186.3,719.9 190.9,722.8 195.5,725.4 200.1,727.6 204.7,729.4 209.2,731.0 213.8,732.2 218.4,733.1 223.0,733.6 227.6,733.8 232.2,733.7 236.8,733.2 241.3,732.4 245.9,731.2 250.5,729.8 255.1,727.9 259.7,725.8 264.2,723.3 268.8,720.5 273.4,717.3 278.0,713.8" fill="none" stroke="#111" stroke-width="2"/>
  </g>
</svg>
