<svg xmlns="http://www.w3.org/2000/svg" width="340" height="274" viewBox="0 0 340 274">
<rect width="100%" height="100%" fill="#fff"/>
<text x="170.0" y="20" text-anchor="middle" font-family="Georgia, serif" font-size="13" font-weight="700">Millions of Metric Tons of Copper Mined</text>
<text x="170.0" y="38" text-anchor="middle" font-family="Georgia, serif" font-size="13" font-weight="700">in 1995 and 2020</text>
<rect x="20" y="54" width="140" height="36" fill="#f3f4f6" stroke="#111" stroke-width="1"/>
<text x="90.0" y="76.0" text-anchor="middle" font-family="Georgia, serif" font-size="12" font-weight="700">Country</text>
<rect x="160" y="54" width="80" height="36" fill="#f3f4f6" stroke="#111" stroke-width="1"/>
<text x="200.0" y="76.0" text-anchor="middle" font-family="Georgia, serif" font-size="12" font-weight="700">1995</text>
<rect x="240" y="54" width="80" height="36" fill="#f3f4f6" stroke="#111" stroke-width="1"/>
<text x="280.0" y="76.0" text-anchor="middle" font-family="Georgia, serif" font-size="12" font-weight="700">2020</text>
<rect x="20" y="90" width="140" height="40" fill="#fff" stroke="#111" stroke-width="1"/>
<text x="90.0" y="114.0" text-anchor="middle" font-family="Georgia, serif" font-size="12" font-weight="400">Indonesia</text>
<rect x="160" y="90" width="80" height="40" fill="#fff" stroke="#111" stroke-width="1"/>
<text x="200.0" y="114.0" text-anchor="middle" font-family="Georgia, serif" font-size="12" font-weight="400">0.44</text>
<rect x="240" y="90" width="80" height="40" fill="#fff" stroke="#111" stroke-width="1"/>
<text x="280.0" y="114.0" text-anchor="middle" font-family="Georgia, serif" font-size="12" font-weight="400">0.51</text>
<rect x="20" y="130" width="140" height="40" fill="#fff" stroke="#111" stroke-width="1"/>
<text x="90.0" y="154.0" text-anchor="middle" font-family="Georgia, serif" font-size="12" font-weight="400">United States</text>
<rect x="160" y="130" width="80" height="40" fill="#fff" stroke="#111" stroke-width="1"/>
<text x="200.0" y="154.0" text-anchor="middle" font-family="Georgia, serif" font-size="12" font-weight="400">1.85</text>
<rect x="240" y="130" width="80" height="40" fill="#fff" stroke="#111" stroke-width="1"/>
<text x="280.0" y="154.0" text-anchor="middle" font-family="Georgia, serif" font-size="12" font-weight="400">1.20</text>
<rect x="20" y="170" width="140" height="40" fill="#fff" stroke="#111" stroke-width="1"/>
<text x="90.0" y="194.0" text-anchor="middle" font-family="Georgia, serif" font-size="12" font-weight="400">Kazakhstan</text>
<rect x="160" y="170" width="80" height="40" fill="#fff" stroke="#111" stroke-width="1"/>
<text x="200.0" y="194.0" text-anchor="middle" font-family="Georgia, serif" font-size="12" font-weight="400">0.26</text>
<rect x="240" y="170" width="80" height="40" fill="#fff" stroke="#111" stroke-width="1"/>
<text x="280.0" y="194.0" text-anchor="middle" font-family="Georgia, serif" font-size="12" font-weight="400">0.55</text>
<rect x="20" y="210" width="140" height="40" fill="#fff" stroke="#111" stroke-width="1"/>
<text x="90.0" y="234.0" text-anchor="middle" font-family="Georgia, serif" font-size="12" font-weight="400">Chile</text>
<rect x="160" y="210" width="80" height="40" fill="#fff" stroke="#111" stroke-width="1"/>
<text x="200.0" y="234.0" text-anchor="middle" font-family="Georgia, serif" font-size="12" font-weight="400">2.49</text>
<rect x="240" y="210" width="80" height="40" fill="#fff" stroke="#111" stroke-width="1"/>
<text x="280.0" y="234.0" text-anchor="middle" font-family="Georgia, serif" font-size="12" font-weight="400">5.73</text>
</svg>