<svg xmlns="http://www.w3.org/2000/svg" width="500" height="440" viewBox="0 0 500 440">
  <rect width="100%" height="100%" fill="#fff"/>
  <line x1="50.0" y1="50" x2="50.0" y2="410" stroke="#e5e7eb"/><text x="50.0" y="428" text-anchor="middle" font-family="Arial" font-size="11">-6</text><line x1="95.0" y1="50" x2="95.0" y2="410" stroke="#e5e7eb"/><text x="95.0" y="428" text-anchor="middle" font-family="Arial" font-size="11">-4</text><line x1="140.0" y1="50" x2="140.0" y2="410" stroke="#e5e7eb"/><text x="140.0" y="428" text-anchor="middle" font-family="Arial" font-size="11">-2</text><line x1="185.0" y1="50" x2="185.0" y2="410" stroke="#e5e7eb"/><text x="185.0" y="428" text-anchor="middle" font-family="Arial" font-size="11">0</text><line x1="230.0" y1="50" x2="230.0" y2="410" stroke="#e5e7eb"/><text x="230.0" y="428" text-anchor="middle" font-family="Arial" font-size="11">2</text><line x1="275.0" y1="50" x2="275.0" y2="410" stroke="#e5e7eb"/><text x="275.0" y="428" text-anchor="middle" font-family="Arial" font-size="11">4</text><line x1="320.0" y1="50" x2="320.0" y2="410" stroke="#e5e7eb"/><text x="320.0" y="428" text-anchor="middle" font-family="Arial" font-size="11">6</text><line x1="365.0" y1="50" x2="365.0" y2="410" stroke="#e5e7eb"/><text x="365.0" y="428" text-anchor="middle" font-family="Arial" font-size="11">8</text><line x1="410.0" y1="50" x2="410.0" y2="410" stroke="#e5e7eb"/><text x="410.0" y="428" text-anchor="middle" font-family="Arial" font-size="11">10</text><line x1="50" y1="390.0" x2="410" y2="390.0" stroke="#e5e7eb"/><text x="42" y="394.0" text-anchor="end" font-family="Arial" font-size="11">-6</text><line x1="50" y1="350.0" x2="410" y2="350.0" stroke="#e5e7eb"/><text x="42" y="354.0" text-anchor="end" font-family="Arial" font-size="11">-4</text><line x1="50" y1="310.0" x2="410" y2="310.0" stroke="#e5e7eb"/><text x="42" y="314.0" text-anchor="end" font-family="Arial" font-size="11">-2</text><line x1="50" y1="270.0" x2="410" y2="270.0" stroke="#e5e7eb"/><text x="42" y="274.0" text-anchor="end" font-family="Arial" font-size="11">0</text><line x1="50" y1="230.0" x2="410" y2="230.0" stroke="#e5e7eb"/><text x="42" y="234.0" text-anchor="end" font-family="Arial" font-size="11">2</text><line x1="50" y1="190.0" x2="410" y2="190.0" stroke="#e5e7eb"/><text x="42" y="194.0" text-anchor="end" font-family="Arial" font-size="11">4</text><line x1="50" y1="150.0" x2="410" y2="150.0" stroke="#e5e7eb"/><text x="42" y="154.0" text-anchor="end" font-family="Arial" font-size="11">6</text><line x1="50" y1="110.0" x2="410" y2="110.0" stroke="#e5e7eb"/><text x="42" y="114.0" text-anchor="end" font-family="Arial" font-size="11">8</text><line x1="50" y1="70.0" x2="410" y2="70.0" stroke="#e5e7eb"/><text x="42" y="74.0" text-anchor="end" font-family="Arial" font-size="11">10</text>
  <line x1="185.0" y1="50" x2="185.0" y2="410" stroke="#111" stroke-width="1.5"/>
  <line x1="50" y1="270.0" x2="410" y2="270.0" stroke="#111" stroke-width="1.5"/>
  <line x1="162.5" y1="150.0" x2="297.5" y2="390.0" stroke="#111" stroke-width="2.5"/>
  <circle cx="185.0" cy="190.0" r="4" fill="#111"/>
  <circle cx="230.0" cy="270.0" r="4" fill="#111"/>
  <text x="191.0" y="286.0" font-family="Arial" font-size="12">O</text>
  <text x="400" y="262.0" font-family="Arial" font-size="14" font-style="italic">x</text>
  <text x="193.0" y="64" font-family="Arial" font-size="14" font-style="italic">y</text>
</svg>
