<svg xmlns="http://www.w3.org/2000/svg" width="540" height="580" viewBox="0 0 540 580">
  <rect width="100%" height="100%" fill="#fff"/>
  
  <g transform="translate(10,0)">
    <text x="0" y="14" font-family="Georgia, serif" font-size="15" font-weight="700">A</text>
    <rect x="0" y="22" width="240" height="240" fill="#fff" stroke="#111"/>
    <g transform="translate(0,22)">
      <line x1="28.0" y1="28.0" x2="28.0" y2="212.0" stroke="#d1d5db"/><line x1="28.0" y1="212.0" x2="212.0" y2="212.0" stroke="#d1d5db"/><line x1="37.2" y1="28.0" x2="37.2" y2="212.0" stroke="#e5e7eb"/><line x1="28.0" y1="202.79999999999998" x2="212.0" y2="202.79999999999998" stroke="#e5e7eb"/><line x1="46.400000000000006" y1="28.0" x2="46.400000000000006" y2="212.0" stroke="#d1d5db"/><line x1="28.0" y1="193.6" x2="212.0" y2="193.6" stroke="#d1d5db"/><line x1="55.599999999999994" y1="28.0" x2="55.599999999999994" y2="212.0" stroke="#e5e7eb"/><line x1="28.0" y1="184.4" x2="212.0" y2="184.4" stroke="#e5e7eb"/><line x1="64.80000000000001" y1="28.0" x2="64.80000000000001" y2="212.0" stroke="#d1d5db"/><line x1="28.0" y1="175.20000000000002" x2="212.0" y2="175.20000000000002" stroke="#d1d5db"/><line x1="74.0" y1="28.0" x2="74.0" y2="212.0" stroke="#e5e7eb"/><line x1="28.0" y1="166.0" x2="212.0" y2="166.0" stroke="#e5e7eb"/><line x1="83.19999999999999" y1="28.0" x2="83.19999999999999" y2="212.0" stroke="#d1d5db"/><line x1="28.0" y1="156.79999999999998" x2="212.0" y2="156.79999999999998" stroke="#d1d5db"/><line x1="92.39999999999999" y1="28.0" x2="92.39999999999999" y2="212.0" stroke="#e5e7eb"/><line x1="28.0" y1="147.60000000000002" x2="212.0" y2="147.60000000000002" stroke="#e5e7eb"/><line x1="101.60000000000001" y1="28.0" x2="101.60000000000001" y2="212.0" stroke="#d1d5db"/><line x1="28.0" y1="138.39999999999998" x2="212.0" y2="138.39999999999998" stroke="#d1d5db"/><line x1="110.8" y1="28.0" x2="110.8" y2="212.0" stroke="#e5e7eb"/><line x1="28.0" y1="129.2" x2="212.0" y2="129.2" stroke="#e5e7eb"/><line x1="120.0" y1="28.0" x2="120.0" y2="212.0" stroke="#d1d5db"/><line x1="28.0" y1="120.0" x2="212.0" y2="120.0" stroke="#d1d5db"/><line x1="129.2" y1="28.0" x2="129.2" y2="212.0" stroke="#e5e7eb"/><line x1="28.0" y1="110.8" x2="212.0" y2="110.8" stroke="#e5e7eb"/><line x1="138.39999999999998" y1="28.0" x2="138.39999999999998" y2="212.0" stroke="#d1d5db"/><line x1="28.0" y1="101.60000000000001" x2="212.0" y2="101.60000000000001" stroke="#d1d5db"/><line x1="147.60000000000002" y1="28.0" x2="147.60000000000002" y2="212.0" stroke="#e5e7eb"/><line x1="28.0" y1="92.39999999999999" x2="212.0" y2="92.39999999999999" stroke="#e5e7eb"/><line x1="156.79999999999998" y1="28.0" x2="156.79999999999998" y2="212.0" stroke="#d1d5db"/><line x1="28.0" y1="83.19999999999999" x2="212.0" y2="83.19999999999999" stroke="#d1d5db"/><line x1="166.0" y1="28.0" x2="166.0" y2="212.0" stroke="#e5e7eb"/><line x1="28.0" y1="74.0" x2="212.0" y2="74.0" stroke="#e5e7eb"/><line x1="175.20000000000002" y1="28.0" x2="175.20000000000002" y2="212.0" stroke="#d1d5db"/><line x1="28.0" y1="64.80000000000001" x2="212.0" y2="64.80000000000001" stroke="#d1d5db"/><line x1="184.4" y1="28.0" x2="184.4" y2="212.0" stroke="#e5e7eb"/><line x1="28.0" y1="55.599999999999994" x2="212.0" y2="55.599999999999994" stroke="#e5e7eb"/><line x1="193.6" y1="28.0" x2="193.6" y2="212.0" stroke="#d1d5db"/><line x1="28.0" y1="46.400000000000006" x2="212.0" y2="46.400000000000006" stroke="#d1d5db"/><line x1="202.79999999999998" y1="28.0" x2="202.79999999999998" y2="212.0" stroke="#e5e7eb"/><line x1="28.0" y1="37.2" x2="212.0" y2="37.2" stroke="#e5e7eb"/><line x1="212.0" y1="28.0" x2="212.0" y2="212.0" stroke="#d1d5db"/><line x1="28.0" y1="28.0" x2="212.0" y2="28.0" stroke="#d1d5db"/>
      <polygon points="28.0,177.04 212.0,29.839999999999993 212.0,28.0 28.0,28.0" fill="#c4c4c4" fill-opacity="0.85"/>
      <line x1="120.0" y1="28.0" x2="120.0" y2="212.0" stroke="#111" stroke-width="1.5"/>
      <line x1="28.0" y1="120.0" x2="212.0" y2="120.0" stroke="#111" stroke-width="1.5"/>
      <line x1="28.0" y1="177.04" x2="212.0" y2="29.839999999999993" stroke="#111" stroke-width="2" stroke-dasharray="6 4"/>
      <text x="28.0" y="134.0" text-anchor="middle" font-family="Georgia, serif" font-size="9">-10</text><text x="110.0" y="215.0" text-anchor="end" font-family="Georgia, serif" font-size="9">-10</text><text x="46.400000000000006" y="134.0" text-anchor="middle" font-family="Georgia, serif" font-size="9">-8</text><text x="110.0" y="196.6" text-anchor="end" font-family="Georgia, serif" font-size="9">-8</text><text x="64.80000000000001" y="134.0" text-anchor="middle" font-family="Georgia, serif" font-size="9">-6</text><text x="110.0" y="178.20000000000002" text-anchor="end" font-family="Georgia, serif" font-size="9">-6</text><text x="83.19999999999999" y="134.0" text-anchor="middle" font-family="Georgia, serif" font-size="9">-4</text><text x="110.0" y="159.79999999999998" text-anchor="end" font-family="Georgia, serif" font-size="9">-4</text><text x="101.60000000000001" y="134.0" text-anchor="middle" font-family="Georgia, serif" font-size="9">-2</text><text x="110.0" y="141.39999999999998" text-anchor="end" font-family="Georgia, serif" font-size="9">-2</text><text x="138.39999999999998" y="134.0" text-anchor="middle" font-family="Georgia, serif" font-size="9">2</text><text x="110.0" y="104.60000000000001" text-anchor="end" font-family="Georgia, serif" font-size="9">2</text><text x="156.79999999999998" y="134.0" text-anchor="middle" font-family="Georgia, serif" font-size="9">4</text><text x="110.0" y="86.19999999999999" text-anchor="end" font-family="Georgia, serif" font-size="9">4</text><text x="175.20000000000002" y="134.0" text-anchor="middle" font-family="Georgia, serif" font-size="9">6</text><text x="110.0" y="67.80000000000001" text-anchor="end" font-family="Georgia, serif" font-size="9">6</text><text x="193.6" y="134.0" text-anchor="middle" font-family="Georgia, serif" font-size="9">8</text><text x="110.0" y="49.400000000000006" text-anchor="end" font-family="Georgia, serif" font-size="9">8</text><text x="212.0" y="134.0" text-anchor="middle" font-family="Georgia, serif" font-size="9">10</text><text x="110.0" y="31.0" text-anchor="end" font-family="Georgia, serif" font-size="9">10</text>
      <text x="128.0" y="134.0" font-family="Georgia, serif" font-size="10">O</text>
      <text x="204.0" y="114.0" font-family="Georgia, serif" font-size="11" font-style="italic">x</text>
      <text x="126.0" y="40.0" font-family="Georgia, serif" font-size="11" font-style="italic">y</text>
    </g>
  </g>
  <g transform="translate(280,0)">
    <text x="0" y="14" font-family="Georgia, serif" font-size="15" font-weight="700">B</text>
    <rect x="0" y="22" width="240" height="240" fill="#fff" stroke="#111"/>
    <g transform="translate(0,22)">
      <line x1="28.0" y1="28.0" x2="28.0" y2="212.0" stroke="#d1d5db"/><line x1="28.0" y1="212.0" x2="212.0" y2="212.0" stroke="#d1d5db"/><line x1="37.2" y1="28.0" x2="37.2" y2="212.0" stroke="#e5e7eb"/><line x1="28.0" y1="202.79999999999998" x2="212.0" y2="202.79999999999998" stroke="#e5e7eb"/><line x1="46.400000000000006" y1="28.0" x2="46.400000000000006" y2="212.0" stroke="#d1d5db"/><line x1="28.0" y1="193.6" x2="212.0" y2="193.6" stroke="#d1d5db"/><line x1="55.599999999999994" y1="28.0" x2="55.599999999999994" y2="212.0" stroke="#e5e7eb"/><line x1="28.0" y1="184.4" x2="212.0" y2="184.4" stroke="#e5e7eb"/><line x1="64.80000000000001" y1="28.0" x2="64.80000000000001" y2="212.0" stroke="#d1d5db"/><line x1="28.0" y1="175.20000000000002" x2="212.0" y2="175.20000000000002" stroke="#d1d5db"/><line x1="74.0" y1="28.0" x2="74.0" y2="212.0" stroke="#e5e7eb"/><line x1="28.0" y1="166.0" x2="212.0" y2="166.0" stroke="#e5e7eb"/><line x1="83.19999999999999" y1="28.0" x2="83.19999999999999" y2="212.0" stroke="#d1d5db"/><line x1="28.0" y1="156.79999999999998" x2="212.0" y2="156.79999999999998" stroke="#d1d5db"/><line x1="92.39999999999999" y1="28.0" x2="92.39999999999999" y2="212.0" stroke="#e5e7eb"/><line x1="28.0" y1="147.60000000000002" x2="212.0" y2="147.60000000000002" stroke="#e5e7eb"/><line x1="101.60000000000001" y1="28.0" x2="101.60000000000001" y2="212.0" stroke="#d1d5db"/><line x1="28.0" y1="138.39999999999998" x2="212.0" y2="138.39999999999998" stroke="#d1d5db"/><line x1="110.8" y1="28.0" x2="110.8" y2="212.0" stroke="#e5e7eb"/><line x1="28.0" y1="129.2" x2="212.0" y2="129.2" stroke="#e5e7eb"/><line x1="120.0" y1="28.0" x2="120.0" y2="212.0" stroke="#d1d5db"/><line x1="28.0" y1="120.0" x2="212.0" y2="120.0" stroke="#d1d5db"/><line x1="129.2" y1="28.0" x2="129.2" y2="212.0" stroke="#e5e7eb"/><line x1="28.0" y1="110.8" x2="212.0" y2="110.8" stroke="#e5e7eb"/><line x1="138.39999999999998" y1="28.0" x2="138.39999999999998" y2="212.0" stroke="#d1d5db"/><line x1="28.0" y1="101.60000000000001" x2="212.0" y2="101.60000000000001" stroke="#d1d5db"/><line x1="147.60000000000002" y1="28.0" x2="147.60000000000002" y2="212.0" stroke="#e5e7eb"/><line x1="28.0" y1="92.39999999999999" x2="212.0" y2="92.39999999999999" stroke="#e5e7eb"/><line x1="156.79999999999998" y1="28.0" x2="156.79999999999998" y2="212.0" stroke="#d1d5db"/><line x1="28.0" y1="83.19999999999999" x2="212.0" y2="83.19999999999999" stroke="#d1d5db"/><line x1="166.0" y1="28.0" x2="166.0" y2="212.0" stroke="#e5e7eb"/><line x1="28.0" y1="74.0" x2="212.0" y2="74.0" stroke="#e5e7eb"/><line x1="175.20000000000002" y1="28.0" x2="175.20000000000002" y2="212.0" stroke="#d1d5db"/><line x1="28.0" y1="64.80000000000001" x2="212.0" y2="64.80000000000001" stroke="#d1d5db"/><line x1="184.4" y1="28.0" x2="184.4" y2="212.0" stroke="#e5e7eb"/><line x1="28.0" y1="55.599999999999994" x2="212.0" y2="55.599999999999994" stroke="#e5e7eb"/><line x1="193.6" y1="28.0" x2="193.6" y2="212.0" stroke="#d1d5db"/><line x1="28.0" y1="46.400000000000006" x2="212.0" y2="46.400000000000006" stroke="#d1d5db"/><line x1="202.79999999999998" y1="28.0" x2="202.79999999999998" y2="212.0" stroke="#e5e7eb"/><line x1="28.0" y1="37.2" x2="212.0" y2="37.2" stroke="#e5e7eb"/><line x1="212.0" y1="28.0" x2="212.0" y2="212.0" stroke="#d1d5db"/><line x1="28.0" y1="28.0" x2="212.0" y2="28.0" stroke="#d1d5db"/>
      <polygon points="28.0,177.04 212.0,29.839999999999993 212.0,212.0 28.0,212.0" fill="#c4c4c4" fill-opacity="0.85"/>
      <line x1="120.0" y1="28.0" x2="120.0" y2="212.0" stroke="#111" stroke-width="1.5"/>
      <line x1="28.0" y1="120.0" x2="212.0" y2="120.0" stroke="#111" stroke-width="1.5"/>
      <line x1="28.0" y1="177.04" x2="212.0" y2="29.839999999999993" stroke="#111" stroke-width="2" stroke-dasharray="6 4"/>
      <text x="28.0" y="134.0" text-anchor="middle" font-family="Georgia, serif" font-size="9">-10</text><text x="110.0" y="215.0" text-anchor="end" font-family="Georgia, serif" font-size="9">-10</text><text x="46.400000000000006" y="134.0" text-anchor="middle" font-family="Georgia, serif" font-size="9">-8</text><text x="110.0" y="196.6" text-anchor="end" font-family="Georgia, serif" font-size="9">-8</text><text x="64.80000000000001" y="134.0" text-anchor="middle" font-family="Georgia, serif" font-size="9">-6</text><text x="110.0" y="178.20000000000002" text-anchor="end" font-family="Georgia, serif" font-size="9">-6</text><text x="83.19999999999999" y="134.0" text-anchor="middle" font-family="Georgia, serif" font-size="9">-4</text><text x="110.0" y="159.79999999999998" text-anchor="end" font-family="Georgia, serif" font-size="9">-4</text><text x="101.60000000000001" y="134.0" text-anchor="middle" font-family="Georgia, serif" font-size="9">-2</text><text x="110.0" y="141.39999999999998" text-anchor="end" font-family="Georgia, serif" font-size="9">-2</text><text x="138.39999999999998" y="134.0" text-anchor="middle" font-family="Georgia, serif" font-size="9">2</text><text x="110.0" y="104.60000000000001" text-anchor="end" font-family="Georgia, serif" font-size="9">2</text><text x="156.79999999999998" y="134.0" text-anchor="middle" font-family="Georgia, serif" font-size="9">4</text><text x="110.0" y="86.19999999999999" text-anchor="end" font-family="Georgia, serif" font-size="9">4</text><text x="175.20000000000002" y="134.0" text-anchor="middle" font-family="Georgia, serif" font-size="9">6</text><text x="110.0" y="67.80000000000001" text-anchor="end" font-family="Georgia, serif" font-size="9">6</text><text x="193.6" y="134.0" text-anchor="middle" font-family="Georgia, serif" font-size="9">8</text><text x="110.0" y="49.400000000000006" text-anchor="end" font-family="Georgia, serif" font-size="9">8</text><text x="212.0" y="134.0" text-anchor="middle" font-family="Georgia, serif" font-size="9">10</text><text x="110.0" y="31.0" text-anchor="end" font-family="Georgia, serif" font-size="9">10</text>
      <text x="128.0" y="134.0" font-family="Georgia, serif" font-size="10">O</text>
      <text x="204.0" y="114.0" font-family="Georgia, serif" font-size="11" font-style="italic">x</text>
      <text x="126.0" y="40.0" font-family="Georgia, serif" font-size="11" font-style="italic">y</text>
    </g>
  </g>
  <g transform="translate(10,290)">
    <text x="0" y="14" font-family="Georgia, serif" font-size="15" font-weight="700">C</text>
    <rect x="0" y="22" width="240" height="240" fill="#fff" stroke="#111"/>
    <g transform="translate(0,22)">
      <line x1="28.0" y1="28.0" x2="28.0" y2="212.0" stroke="#d1d5db"/><line x1="28.0" y1="212.0" x2="212.0" y2="212.0" stroke="#d1d5db"/><line x1="37.2" y1="28.0" x2="37.2" y2="212.0" stroke="#e5e7eb"/><line x1="28.0" y1="202.79999999999998" x2="212.0" y2="202.79999999999998" stroke="#e5e7eb"/><line x1="46.400000000000006" y1="28.0" x2="46.400000000000006" y2="212.0" stroke="#d1d5db"/><line x1="28.0" y1="193.6" x2="212.0" y2="193.6" stroke="#d1d5db"/><line x1="55.599999999999994" y1="28.0" x2="55.599999999999994" y2="212.0" stroke="#e5e7eb"/><line x1="28.0" y1="184.4" x2="212.0" y2="184.4" stroke="#e5e7eb"/><line x1="64.80000000000001" y1="28.0" x2="64.80000000000001" y2="212.0" stroke="#d1d5db"/><line x1="28.0" y1="175.20000000000002" x2="212.0" y2="175.20000000000002" stroke="#d1d5db"/><line x1="74.0" y1="28.0" x2="74.0" y2="212.0" stroke="#e5e7eb"/><line x1="28.0" y1="166.0" x2="212.0" y2="166.0" stroke="#e5e7eb"/><line x1="83.19999999999999" y1="28.0" x2="83.19999999999999" y2="212.0" stroke="#d1d5db"/><line x1="28.0" y1="156.79999999999998" x2="212.0" y2="156.79999999999998" stroke="#d1d5db"/><line x1="92.39999999999999" y1="28.0" x2="92.39999999999999" y2="212.0" stroke="#e5e7eb"/><line x1="28.0" y1="147.60000000000002" x2="212.0" y2="147.60000000000002" stroke="#e5e7eb"/><line x1="101.60000000000001" y1="28.0" x2="101.60000000000001" y2="212.0" stroke="#d1d5db"/><line x1="28.0" y1="138.39999999999998" x2="212.0" y2="138.39999999999998" stroke="#d1d5db"/><line x1="110.8" y1="28.0" x2="110.8" y2="212.0" stroke="#e5e7eb"/><line x1="28.0" y1="129.2" x2="212.0" y2="129.2" stroke="#e5e7eb"/><line x1="120.0" y1="28.0" x2="120.0" y2="212.0" stroke="#d1d5db"/><line x1="28.0" y1="120.0" x2="212.0" y2="120.0" stroke="#d1d5db"/><line x1="129.2" y1="28.0" x2="129.2" y2="212.0" stroke="#e5e7eb"/><line x1="28.0" y1="110.8" x2="212.0" y2="110.8" stroke="#e5e7eb"/><line x1="138.39999999999998" y1="28.0" x2="138.39999999999998" y2="212.0" stroke="#d1d5db"/><line x1="28.0" y1="101.60000000000001" x2="212.0" y2="101.60000000000001" stroke="#d1d5db"/><line x1="147.60000000000002" y1="28.0" x2="147.60000000000002" y2="212.0" stroke="#e5e7eb"/><line x1="28.0" y1="92.39999999999999" x2="212.0" y2="92.39999999999999" stroke="#e5e7eb"/><line x1="156.79999999999998" y1="28.0" x2="156.79999999999998" y2="212.0" stroke="#d1d5db"/><line x1="28.0" y1="83.19999999999999" x2="212.0" y2="83.19999999999999" stroke="#d1d5db"/><line x1="166.0" y1="28.0" x2="166.0" y2="212.0" stroke="#e5e7eb"/><line x1="28.0" y1="74.0" x2="212.0" y2="74.0" stroke="#e5e7eb"/><line x1="175.20000000000002" y1="28.0" x2="175.20000000000002" y2="212.0" stroke="#d1d5db"/><line x1="28.0" y1="64.80000000000001" x2="212.0" y2="64.80000000000001" stroke="#d1d5db"/><line x1="184.4" y1="28.0" x2="184.4" y2="212.0" stroke="#e5e7eb"/><line x1="28.0" y1="55.599999999999994" x2="212.0" y2="55.599999999999994" stroke="#e5e7eb"/><line x1="193.6" y1="28.0" x2="193.6" y2="212.0" stroke="#d1d5db"/><line x1="28.0" y1="46.400000000000006" x2="212.0" y2="46.400000000000006" stroke="#d1d5db"/><line x1="202.79999999999998" y1="28.0" x2="202.79999999999998" y2="212.0" stroke="#e5e7eb"/><line x1="28.0" y1="37.2" x2="212.0" y2="37.2" stroke="#e5e7eb"/><line x1="212.0" y1="28.0" x2="212.0" y2="212.0" stroke="#d1d5db"/><line x1="28.0" y1="28.0" x2="212.0" y2="28.0" stroke="#d1d5db"/>
      <polygon points="28.0,29.839999999999993 212.0,177.04 212.0,212.0 28.0,212.0" fill="#c4c4c4" fill-opacity="0.85"/>
      <line x1="120.0" y1="28.0" x2="120.0" y2="212.0" stroke="#111" stroke-width="1.5"/>
      <line x1="28.0" y1="120.0" x2="212.0" y2="120.0" stroke="#111" stroke-width="1.5"/>
      <line x1="28.0" y1="29.839999999999993" x2="212.0" y2="177.04" stroke="#111" stroke-width="2" stroke-dasharray="6 4"/>
      <text x="28.0" y="134.0" text-anchor="middle" font-family="Georgia, serif" font-size="9">-10</text><text x="110.0" y="215.0" text-anchor="end" font-family="Georgia, serif" font-size="9">-10</text><text x="46.400000000000006" y="134.0" text-anchor="middle" font-family="Georgia, serif" font-size="9">-8</text><text x="110.0" y="196.6" text-anchor="end" font-family="Georgia, serif" font-size="9">-8</text><text x="64.80000000000001" y="134.0" text-anchor="middle" font-family="Georgia, serif" font-size="9">-6</text><text x="110.0" y="178.20000000000002" text-anchor="end" font-family="Georgia, serif" font-size="9">-6</text><text x="83.19999999999999" y="134.0" text-anchor="middle" font-family="Georgia, serif" font-size="9">-4</text><text x="110.0" y="159.79999999999998" text-anchor="end" font-family="Georgia, serif" font-size="9">-4</text><text x="101.60000000000001" y="134.0" text-anchor="middle" font-family="Georgia, serif" font-size="9">-2</text><text x="110.0" y="141.39999999999998" text-anchor="end" font-family="Georgia, serif" font-size="9">-2</text><text x="138.39999999999998" y="134.0" text-anchor="middle" font-family="Georgia, serif" font-size="9">2</text><text x="110.0" y="104.60000000000001" text-anchor="end" font-family="Georgia, serif" font-size="9">2</text><text x="156.79999999999998" y="134.0" text-anchor="middle" font-family="Georgia, serif" font-size="9">4</text><text x="110.0" y="86.19999999999999" text-anchor="end" font-family="Georgia, serif" font-size="9">4</text><text x="175.20000000000002" y="134.0" text-anchor="middle" font-family="Georgia, serif" font-size="9">6</text><text x="110.0" y="67.80000000000001" text-anchor="end" font-family="Georgia, serif" font-size="9">6</text><text x="193.6" y="134.0" text-anchor="middle" font-family="Georgia, serif" font-size="9">8</text><text x="110.0" y="49.400000000000006" text-anchor="end" font-family="Georgia, serif" font-size="9">8</text><text x="212.0" y="134.0" text-anchor="middle" font-family="Georgia, serif" font-size="9">10</text><text x="110.0" y="31.0" text-anchor="end" font-family="Georgia, serif" font-size="9">10</text>
      <text x="128.0" y="134.0" font-family="Georgia, serif" font-size="10">O</text>
      <text x="204.0" y="114.0" font-family="Georgia, serif" font-size="11" font-style="italic">x</text>
      <text x="126.0" y="40.0" font-family="Georgia, serif" font-size="11" font-style="italic">y</text>
    </g>
  </g>
  <g transform="translate(280,290)">
    <text x="0" y="14" font-family="Georgia, serif" font-size="15" font-weight="700">D</text>
    <rect x="0" y="22" width="240" height="240" fill="#fff" stroke="#111"/>
    <g transform="translate(0,22)">
      <line x1="28.0" y1="28.0" x2="28.0" y2="212.0" stroke="#d1d5db"/><line x1="28.0" y1="212.0" x2="212.0" y2="212.0" stroke="#d1d5db"/><line x1="37.2" y1="28.0" x2="37.2" y2="212.0" stroke="#e5e7eb"/><line x1="28.0" y1="202.79999999999998" x2="212.0" y2="202.79999999999998" stroke="#e5e7eb"/><line x1="46.400000000000006" y1="28.0" x2="46.400000000000006" y2="212.0" stroke="#d1d5db"/><line x1="28.0" y1="193.6" x2="212.0" y2="193.6" stroke="#d1d5db"/><line x1="55.599999999999994" y1="28.0" x2="55.599999999999994" y2="212.0" stroke="#e5e7eb"/><line x1="28.0" y1="184.4" x2="212.0" y2="184.4" stroke="#e5e7eb"/><line x1="64.80000000000001" y1="28.0" x2="64.80000000000001" y2="212.0" stroke="#d1d5db"/><line x1="28.0" y1="175.20000000000002" x2="212.0" y2="175.20000000000002" stroke="#d1d5db"/><line x1="74.0" y1="28.0" x2="74.0" y2="212.0" stroke="#e5e7eb"/><line x1="28.0" y1="166.0" x2="212.0" y2="166.0" stroke="#e5e7eb"/><line x1="83.19999999999999" y1="28.0" x2="83.19999999999999" y2="212.0" stroke="#d1d5db"/><line x1="28.0" y1="156.79999999999998" x2="212.0" y2="156.79999999999998" stroke="#d1d5db"/><line x1="92.39999999999999" y1="28.0" x2="92.39999999999999" y2="212.0" stroke="#e5e7eb"/><line x1="28.0" y1="147.60000000000002" x2="212.0" y2="147.60000000000002" stroke="#e5e7eb"/><line x1="101.60000000000001" y1="28.0" x2="101.60000000000001" y2="212.0" stroke="#d1d5db"/><line x1="28.0" y1="138.39999999999998" x2="212.0" y2="138.39999999999998" stroke="#d1d5db"/><line x1="110.8" y1="28.0" x2="110.8" y2="212.0" stroke="#e5e7eb"/><line x1="28.0" y1="129.2" x2="212.0" y2="129.2" stroke="#e5e7eb"/><line x1="120.0" y1="28.0" x2="120.0" y2="212.0" stroke="#d1d5db"/><line x1="28.0" y1="120.0" x2="212.0" y2="120.0" stroke="#d1d5db"/><line x1="129.2" y1="28.0" x2="129.2" y2="212.0" stroke="#e5e7eb"/><line x1="28.0" y1="110.8" x2="212.0" y2="110.8" stroke="#e5e7eb"/><line x1="138.39999999999998" y1="28.0" x2="138.39999999999998" y2="212.0" stroke="#d1d5db"/><line x1="28.0" y1="101.60000000000001" x2="212.0" y2="101.60000000000001" stroke="#d1d5db"/><line x1="147.60000000000002" y1="28.0" x2="147.60000000000002" y2="212.0" stroke="#e5e7eb"/><line x1="28.0" y1="92.39999999999999" x2="212.0" y2="92.39999999999999" stroke="#e5e7eb"/><line x1="156.79999999999998" y1="28.0" x2="156.79999999999998" y2="212.0" stroke="#d1d5db"/><line x1="28.0" y1="83.19999999999999" x2="212.0" y2="83.19999999999999" stroke="#d1d5db"/><line x1="166.0" y1="28.0" x2="166.0" y2="212.0" stroke="#e5e7eb"/><line x1="28.0" y1="74.0" x2="212.0" y2="74.0" stroke="#e5e7eb"/><line x1="175.20000000000002" y1="28.0" x2="175.20000000000002" y2="212.0" stroke="#d1d5db"/><line x1="28.0" y1="64.80000000000001" x2="212.0" y2="64.80000000000001" stroke="#d1d5db"/><line x1="184.4" y1="28.0" x2="184.4" y2="212.0" stroke="#e5e7eb"/><line x1="28.0" y1="55.599999999999994" x2="212.0" y2="55.599999999999994" stroke="#e5e7eb"/><line x1="193.6" y1="28.0" x2="193.6" y2="212.0" stroke="#d1d5db"/><line x1="28.0" y1="46.400000000000006" x2="212.0" y2="46.400000000000006" stroke="#d1d5db"/><line x1="202.79999999999998" y1="28.0" x2="202.79999999999998" y2="212.0" stroke="#e5e7eb"/><line x1="28.0" y1="37.2" x2="212.0" y2="37.2" stroke="#e5e7eb"/><line x1="212.0" y1="28.0" x2="212.0" y2="212.0" stroke="#d1d5db"/><line x1="28.0" y1="28.0" x2="212.0" y2="28.0" stroke="#d1d5db"/>
      <polygon points="28.0,29.839999999999993 212.0,177.04 212.0,28.0 28.0,28.0" fill="#c4c4c4" fill-opacity="0.85"/>
      <line x1="120.0" y1="28.0" x2="120.0" y2="212.0" stroke="#111" stroke-width="1.5"/>
      <line x1="28.0" y1="120.0" x2="212.0" y2="120.0" stroke="#111" stroke-width="1.5"/>
      <line x1="28.0" y1="29.839999999999993" x2="212.0" y2="177.04" stroke="#111" stroke-width="2" stroke-dasharray="6 4"/>
      <text x="28.0" y="134.0" text-anchor="middle" font-family="Georgia, serif" font-size="9">-10</text><text x="110.0" y="215.0" text-anchor="end" font-family="Georgia, serif" font-size="9">-10</text><text x="46.400000000000006" y="134.0" text-anchor="middle" font-family="Georgia, serif" font-size="9">-8</text><text x="110.0" y="196.6" text-anchor="end" font-family="Georgia, serif" font-size="9">-8</text><text x="64.80000000000001" y="134.0" text-anchor="middle" font-family="Georgia, serif" font-size="9">-6</text><text x="110.0" y="178.20000000000002" text-anchor="end" font-family="Georgia, serif" font-size="9">-6</text><text x="83.19999999999999" y="134.0" text-anchor="middle" font-family="Georgia, serif" font-size="9">-4</text><text x="110.0" y="159.79999999999998" text-anchor="end" font-family="Georgia, serif" font-size="9">-4</text><text x="101.60000000000001" y="134.0" text-anchor="middle" font-family="Georgia, serif" font-size="9">-2</text><text x="110.0" y="141.39999999999998" text-anchor="end" font-family="Georgia, serif" font-size="9">-2</text><text x="138.39999999999998" y="134.0" text-anchor="middle" font-family="Georgia, serif" font-size="9">2</text><text x="110.0" y="104.60000000000001" text-anchor="end" font-family="Georgia, serif" font-size="9">2</text><text x="156.79999999999998" y="134.0" text-anchor="middle" font-family="Georgia, serif" font-size="9">4</text><text x="110.0" y="86.19999999999999" text-anchor="end" font-family="Georgia, serif" font-size="9">4</text><text x="175.20000000000002" y="134.0" text-anchor="middle" font-family="Georgia, serif" font-size="9">6</text><text x="110.0" y="67.80000000000001" text-anchor="end" font-family="Georgia, serif" font-size="9">6</text><text x="193.6" y="134.0" text-anchor="middle" font-family="Georgia, serif" font-size="9">8</text><text x="110.0" y="49.400000000000006" text-anchor="end" font-family="Georgia, serif" font-size="9">8</text><text x="212.0" y="134.0" text-anchor="middle" font-family="Georgia, serif" font-size="9">10</text><text x="110.0" y="31.0" text-anchor="end" font-family="Georgia, serif" font-size="9">10</text>
      <text x="128.0" y="134.0" font-family="Georgia, serif" font-size="10">O</text>
      <text x="204.0" y="114.0" font-family="Georgia, serif" font-size="11" font-style="italic">x</text>
      <text x="126.0" y="40.0" font-family="Georgia, serif" font-size="11" font-style="italic">y</text>
    </g>
  </g>
</svg>
